<?xml version="1.0" standalone="no"?>
<!DOCTYPE svg PUBLIC "-//W3C//DTD SVG 20010904//EN"
 "http://www.w3.org/TR/2001/REC-SVG-20010904/DTD/svg10.dtd">
<svg version="1.0" xmlns="http://www.w3.org/2000/svg"
 width="3584.000000pt" height="1184.000000pt" viewBox="0 0 3584.000000 1184.000000"
 preserveAspectRatio="xMidYMid meet">

<g transform="translate(0.000000,1184.000000) scale(0.100000,-0.100000)"
fill="#000000" stroke="none">
<path d="M7085 7579 c-241 -20 -441 -95 -671 -250 -95 -64 -235 -213 -323
-342 -48 -71 -129 -239 -156 -326 -58 -186 -59 -192 -63 -896 -2 -357 -2 -684
0 -724 l3 -75 64 100 c35 54 70 109 77 120 10 17 14 154 17 630 4 673 2 653
72 840 109 290 291 497 566 641 164 87 270 113 480 120 163 6 300 -10 379 -44
19 -8 53 -21 76 -29 54 -18 219 -109 267 -146 l37 -30 49 36 c27 20 53 36 59
36 5 0 15 6 21 14 9 11 6 18 -16 35 -15 11 -33 24 -38 28 -64 49 -97 69 -191
117 -163 83 -305 127 -449 141 -141 12 -162 13 -260 4z"/>
<path d="M8615 7445 c-49 -35 -153 -107 -230 -159 -77 -53 -192 -131 -255
-175 -63 -44 -164 -114 -225 -156 -219 -150 -296 -205 -397 -277 -57 -40 -129
-91 -161 -113 -32 -22 -102 -71 -155 -108 -53 -37 -108 -75 -122 -84 -122 -83
-226 -162 -245 -187 -21 -28 -89 -140 -258 -421 -33 -55 -88 -145 -122 -200
-34 -55 -112 -183 -172 -285 -61 -102 -150 -250 -198 -330 -243 -399 -309
-508 -326 -536 -9 -18 -40 -69 -68 -114 -28 -45 -51 -84 -51 -86 0 -7 44 22
245 166 105 74 204 144 220 154 17 10 94 64 173 120 79 56 198 139 265 185 67
46 165 113 217 149 52 36 120 84 150 107 30 22 91 65 135 95 44 29 140 96 213
149 73 53 166 119 207 146 81 55 86 61 234 310 46 77 119 196 161 265 42 69
119 195 170 280 93 154 129 214 283 465 241 393 424 705 414 704 -7 0 -52 -29
-102 -64z m-442 -547 c-22 -35 -78 -126 -125 -203 -97 -161 -237 -391 -395
-650 -61 -99 -129 -213 -153 -253 -23 -40 -44 -71 -46 -70 -33 30 -424 424
-424 428 0 3 19 17 43 32 50 32 108 72 288 200 74 52 184 129 244 171 61 42
191 134 290 204 251 176 307 214 313 208 3 -2 -13 -33 -35 -67z m-1042 -1085
c115 -113 209 -209 209 -212 0 -4 -12 -14 -27 -23 -24 -14 -317 -219 -643
-449 -342 -242 -380 -268 -447 -317 -50 -37 -64 -36 -39 2 9 14 28 47 42 73
14 26 43 75 64 108 20 33 73 121 117 195 44 74 106 177 137 228 31 51 69 114
83 140 14 26 67 112 118 192 50 80 107 173 126 208 18 34 37 62 42 62 5 0 103
-93 218 -207z"/>
<path d="M19490 6985 c-25 -7 -65 -19 -89 -27 l-43 -13 -55 -140 c-29 -77 -76
-194 -103 -260 -27 -66 -92 -230 -145 -365 -264 -668 -437 -1096 -450 -1109
-8 -8 -56 -28 -107 -46 l-93 -31 -3 -52 c-2 -38 1 -52 10 -52 7 0 152 -1 321
-2 l308 -3 -3 54 -3 55 -80 22 c-100 27 -135 41 -135 54 0 6 25 77 57 158 31
81 69 182 85 225 15 43 33 87 38 98 11 19 22 19 392 17 l382 -3 19 -50 c10
-27 23 -59 28 -70 5 -11 25 -63 44 -115 19 -52 40 -104 45 -115 20 -41 50
-126 50 -140 0 -19 -40 -38 -127 -60 l-73 -19 -2 -38 c-1 -21 -2 -46 -2 -55
-1 -16 25 -17 359 -15 l360 3 0 60 0 61 -55 19 c-31 10 -65 30 -78 46 -22 27
-124 266 -268 633 -36 91 -82 206 -104 255 -21 50 -53 126 -70 170 -17 44 -37
94 -44 110 -8 17 -47 111 -86 210 -182 451 -211 520 -223 531 -9 8 -24 8 -57
-1z m-93 -462 c20 -59 140 -364 161 -413 46 -102 150 -376 146 -382 -8 -13
-632 -10 -639 2 -4 6 -2 16 3 23 5 7 19 38 30 69 12 32 42 111 67 175 26 65
64 165 87 223 22 58 44 114 48 125 5 11 23 59 41 108 32 87 44 103 56 70z"/>
<path d="M25039 6989 c-19 -4 -61 -17 -91 -29 -44 -16 -57 -26 -62 -46 -9 -33
-178 -468 -368 -944 -38 -96 -80 -202 -93 -235 -13 -33 -55 -136 -93 -230 -38
-93 -90 -226 -117 -294 -27 -68 -56 -132 -66 -142 -10 -10 -59 -30 -109 -46
l-91 -27 3 -54 3 -53 318 -2 318 -2 -3 54 -3 54 -95 26 c-108 29 -120 35 -120
59 1 9 40 123 89 252 l88 235 384 3 384 2 29 -77 c16 -43 34 -91 41 -108 7
-16 37 -92 66 -168 40 -106 50 -143 42 -155 -5 -9 -41 -25 -79 -35 -117 -32
-114 -29 -114 -89 l0 -53 395 0 395 0 0 53 c0 33 -5 54 -12 56 -173 52 -193
61 -210 96 -29 60 -138 325 -304 740 -41 102 -83 204 -94 227 -11 24 -20 45
-20 48 0 3 -8 24 -19 48 -20 46 -160 392 -222 552 -22 55 -46 115 -55 132 -8
18 -25 61 -38 95 -13 34 -28 63 -32 64 -5 1 -25 -2 -45 -7z m-66 -555 c21 -54
47 -119 57 -144 10 -25 39 -101 65 -170 26 -69 56 -144 66 -167 11 -24 19 -46
19 -50 0 -5 6 -20 14 -35 25 -47 55 -136 49 -142 -9 -9 -633 -7 -633 2 0 8 10
35 113 302 93 241 140 366 168 448 12 34 27 61 33 59 6 -2 28 -48 49 -103z"/>
<path d="M21410 6984 c-177 -21 -264 -47 -396 -119 -93 -51 -211 -140 -263
-200 -72 -82 -107 -212 -91 -338 11 -88 27 -130 77 -209 79 -122 181 -190 468
-315 224 -98 306 -138 358 -178 177 -136 183 -403 10 -529 -78 -57 -168 -81
-298 -80 -93 1 -121 6 -183 28 -168 62 -212 110 -285 303 -26 70 -52 135 -56
143 -7 11 -26 15 -80 14 -40 -1 -75 -4 -77 -7 -6 -5 23 -372 34 -447 7 -43 10
-46 65 -73 278 -132 675 -163 927 -71 132 49 271 167 328 280 95 188 82 437
-32 591 -75 103 -146 151 -370 255 -361 167 -493 254 -541 355 -23 47 -16 132
15 197 52 108 194 210 328 237 92 17 251 7 327 -22 87 -34 152 -102 194 -204
18 -44 41 -99 51 -122 l18 -41 64 5 c34 3 64 6 65 7 5 4 -24 413 -30 423 -7
11 -122 53 -207 74 -119 31 -336 53 -420 43z"/>
<path d="M23003 6979 c-325 -39 -543 -222 -582 -489 -34 -229 64 -425 277
-551 45 -27 85 -49 87 -49 3 0 24 -8 48 -19 23 -10 87 -38 142 -61 55 -23 104
-46 110 -51 5 -5 15 -9 22 -9 8 0 61 -23 119 -51 113 -54 181 -107 219 -173
26 -45 49 -151 41 -188 -3 -13 -7 -38 -10 -56 -7 -54 -54 -139 -97 -176 -125
-107 -400 -121 -582 -29 -101 51 -143 108 -217 303 -17 47 -36 95 -41 108 -8
21 -14 23 -80 21 -47 -1 -72 -6 -76 -15 -2 -7 1 -68 7 -136 12 -130 28 -314
29 -335 2 -33 246 -122 406 -149 199 -32 470 -17 585 33 117 51 150 72 221
143 124 123 177 265 165 445 -11 182 -89 321 -239 423 -60 42 -198 110 -316
156 -51 20 -112 45 -135 56 -22 10 -71 32 -107 48 -137 61 -230 137 -271 222
-33 68 -31 168 6 240 64 127 152 177 330 187 131 8 217 -8 296 -55 71 -42 91
-71 161 -232 l45 -105 60 3 c32 2 62 7 65 10 10 12 -23 416 -35 429 -17 18
-193 70 -292 87 -106 18 -275 25 -361 15z"/>
<path d="M27205 6983 c-256 -24 -439 -90 -618 -224 -304 -228 -446 -661 -368
-1116 42 -238 180 -457 376 -598 139 -99 253 -142 465 -175 268 -42 531 -16
825 82 l130 43 -4 321 c-2 223 0 327 8 342 11 21 76 47 149 58 l42 7 0 61 0
61 -390 0 -390 0 0 -60 0 -61 111 -22 c64 -12 120 -29 131 -38 17 -16 18 -34
16 -298 l-3 -281 -29 -14 c-98 -47 -351 -61 -491 -27 -109 26 -239 95 -323
172 -82 75 -123 132 -181 254 -48 100 -64 154 -92 315 -46 264 9 560 137 741
96 136 249 245 393 280 140 35 380 27 496 -17 95 -35 163 -128 240 -324 l32
-80 59 3 c32 2 62 7 67 11 7 7 -4 246 -19 403 l-7 67 -76 25 c-117 39 -227 64
-326 76 -91 10 -305 18 -360 13z"/>
<path d="M16834 6951 c-2 -2 -4 -28 -4 -57 l0 -52 95 -22 c52 -12 106 -30 120
-41 l25 -21 -2 -841 -3 -842 -45 -22 c-25 -11 -61 -24 -80 -27 -19 -3 -52 -11
-72 -16 l-38 -11 0 -57 0 -57 449 0 449 0 0 52 c-1 60 19 50 -168 93 -52 12
-110 28 -128 36 l-32 13 2 333 c3 326 3 333 23 331 275 -29 390 -23 544 27
116 38 173 67 248 127 144 114 213 268 213 474 0 113 -11 163 -58 255 -79 157
-215 252 -437 306 -86 21 -110 22 -593 22 -277 1 -505 -1 -508 -3z m905 -156
c227 -47 341 -203 341 -463 0 -139 -35 -236 -118 -324 -89 -95 -179 -123 -396
-122 -115 1 -150 4 -157 15 -10 16 -12 776 -3 857 l7 52 128 0 c75 0 157 -6
198 -15z"/>
<path d="M28474 6949 c-3 -5 -2 -31 2 -58 5 -43 10 -50 33 -56 89 -21 165 -49
182 -66 18 -18 19 -41 19 -857 l0 -839 -37 -16 c-21 -9 -63 -23 -93 -32 -30
-9 -66 -19 -80 -23 -23 -7 -25 -13 -25 -60 l0 -53 415 -1 415 -1 0 54 0 54
-40 8 c-22 5 -78 21 -125 36 l-85 27 -7 46 c-5 26 -7 195 -6 375 l3 328 106 3
105 3 150 -228 c83 -125 182 -277 220 -336 112 -176 198 -290 241 -323 50 -38
121 -50 351 -59 l163 -7 -3 63 -3 62 -60 17 c-111 30 -144 56 -233 180 -25 36
-49 67 -52 70 -6 5 -174 246 -278 400 -36 52 -82 117 -104 144 -21 27 -37 54
-35 60 2 6 19 15 38 21 87 27 226 119 280 188 79 99 113 222 106 379 -4 97 -8
115 -39 180 -57 119 -120 183 -237 242 -100 51 -181 67 -361 72 -344 8 -921
10 -926 3z m883 -149 c202 -29 324 -160 339 -363 16 -213 -85 -381 -264 -440
-67 -22 -98 -26 -232 -28 l-155 -3 -3 410 c-1 225 0 414 2 419 5 15 220 19
313 5z"/>
<path d="M8377 6589 l-59 -90 14 -52 c10 -42 13 -237 13 -970 l0 -918 -955 1
-955 0 -50 -35 c-28 -19 -78 -54 -112 -78 -35 -23 -63 -45 -63 -48 0 -3 516
-5 1148 -5 l1147 1 3 935 c1 559 -1 981 -7 1050 -9 104 -44 274 -60 292 -3 4
-32 -33 -64 -83z"/>
</g>
</svg>
