<?xml version="1.0" standalone="no"?>
<!DOCTYPE svg PUBLIC "-//W3C//DTD SVG 20010904//EN"
 "http://www.w3.org/TR/2001/REC-SVG-20010904/DTD/svg10.dtd">
<svg version="1.0" xmlns="http://www.w3.org/2000/svg"
 width="2048.000000pt" height="2048.000000pt" viewBox="0 0 2048.000000 2048.000000"
 preserveAspectRatio="xMidYMid meet">

<g transform="translate(0.000000,2048.000000) scale(0.100000,-0.100000)"
fill="#000000" stroke="none">
<path d="M10080 17043 c-523 -23 -886 -68 -1305 -159 -822 -179 -1597 -514
-2328 -1006 -576 -388 -1071 -851 -1556 -1455 -393 -489 -751 -1113 -991
-1728 -161 -410 -257 -733 -330 -1110 -17 -88 -37 -191 -45 -230 -51 -243 -95
-774 -95 -1139 0 -292 43 -813 86 -1042 105 -563 196 -894 369 -1345 119 -311
316 -720 461 -955 37 -60 79 -130 95 -155 58 -99 261 -400 341 -506 790 -1052
1843 -1851 3062 -2323 958 -370 1997 -515 3016 -420 811 75 1624 307 2341 666
324 162 497 262 794 460 1191 795 2131 1976 2629 3306 315 843 462 1771 417
2643 -16 304 -50 637 -81 785 -5 25 -21 108 -36 185 -199 1062 -702 2135
-1409 3004 -308 380 -672 737 -1090 1072 -765 612 -1733 1076 -2690 1289 -407
90 -755 135 -1255 160 -185 9 -251 10 -400 3z m475 -283 c529 -28 925 -90
1405 -220 628 -169 1271 -462 1840 -837 395 -261 695 -506 1045 -857 348 -348
571 -620 842 -1026 529 -793 899 -1771 1027 -2715 76 -565 75 -1244 -4 -1765
-102 -670 -289 -1284 -570 -1867 -486 -1009 -1191 -1854 -2095 -2508 -785
-569 -1674 -958 -2612 -1145 -699 -138 -1498 -147 -2238 -24 -295 49 -715 157
-1040 268 -173 58 -589 233 -756 317 -648 324 -1241 747 -1744 1244 -405 399
-831 952 -1077 1395 -124 225 -162 297 -234 447 -286 594 -476 1214 -573 1865
-52 343 -77 818 -61 1153 52 1124 371 2168 959 3140 371 615 900 1215 1511
1715 166 135 232 183 490 354 821 546 1710 881 2690 1015 381 52 819 71 1195
51z"/>
<path d="M6216 14253 c-8 -8 -8 -7993 0 -7993 5 0 524 235 794 360 85 40 180
83 210 97 30 14 123 57 205 95 83 38 229 105 325 149 96 44 213 99 260 122
l85 42 3 3053 2 3052 2338 -2 2337 -3 3 -3125 2 -3125 288 -147 c794 -404
1180 -598 1188 -598 13 0 9 8013 -3 8017 -10 4 -362 -172 -1009 -503 l-321
-164 -2497 0 -2497 0 -282 113 c-155 63 -394 158 -532 212 -137 54 -374 147
-525 207 -151 61 -296 118 -321 128 -26 11 -50 16 -53 13z m470 -564 c121 -45
416 -160 804 -314 l255 -102 2 -2954 c2 -1625 -1 -2959 -5 -2965 -4 -6 -146
-74 -317 -152 -336 -152 -681 -311 -785 -361 l-65 -31 -5 3453 c-3 1898 -4
3455 -2 3460 4 9 -6 12 118 -34z m7224 -3444 c0 -2340 -3 -3435 -10 -3435 -25
0 -750 372 -760 389 -16 31 -14 6077 3 6091 14 13 748 389 760 390 4 0 7
-1546 7 -3435z"/>
<path d="M11890 11957 c-58 -30 -224 -116 -370 -192 -146 -75 -400 -207 -565
-292 -165 -85 -322 -168 -350 -183 -27 -15 -126 -67 -220 -115 -568 -293 -679
-353 -701 -377 -21 -23 -132 -229 -334 -623 -57 -110 -184 -355 -283 -545
-338 -646 -597 -1153 -593 -1158 3 -2 94 42 203 99 109 56 243 126 298 154 55
29 164 85 243 124 79 40 178 92 220 115 42 23 167 89 277 145 110 57 326 169
480 250 154 80 354 184 445 231 l165 85 148 285 c82 157 219 420 304 585 86
165 185 356 221 425 115 221 520 1010 530 1033 7 15 -15 6 -118 -46z m-578
-664 c-10 -16 -56 -100 -102 -188 -45 -88 -113 -218 -150 -290 -37 -71 -114
-220 -170 -330 -56 -110 -132 -255 -167 -323 l-65 -123 -91 88 c-164 160 -527
528 -526 533 0 3 49 29 108 58 58 28 178 90 266 135 505 264 720 376 800 419
106 56 125 60 97 21z m-872 -1473 c0 -3 -48 -29 -107 -59 -106 -52 -720 -368
-818 -421 -195 -105 -347 -181 -351 -177 -3 3 30 72 74 154 43 81 139 265 212
408 73 143 161 313 196 378 35 65 64 121 64 124 0 3 25 52 56 110 l57 105 308
-308 c170 -170 309 -311 309 -314z"/>
</g>
</svg>
